<svg version="1.0" xmlns="http://www.w3.org/2000/svg" xmlns:xlink="http://www.w3.org/1999/xlink" x="0" y="0" width="2400" height="592.7290025042169" viewBox="47.6152995300293 94.77460128784179 244.76938568115236 60.450797424316406" preserveAspectRatio="xMidYMid meet" color-interpolation-filters="sRGB">
  <g>
    <g fill="#090088" class="icon-text-wrapper icon-svg-group iconsvg" transform="translate(50.01499938964844,97.17429991066456)">
      <g class="iconsvg-imagesvg" transform="translate(0,0)">
        <g>
          <rect fill="#090088" fill-opacity="0" stroke-width="2" x="0" y="0" width="60" height="55.65139963270076" class="image-rect"/>
          <svg x="0" y="0" width="60" height="55.65139963270076" class="image-svg-svg primary" style="overflow: visible;">
            <svg xmlns="http://www.w3.org/2000/svg" viewBox="0.9403173327445984 0.4172359108924866 98.11968231201172 91.00850677490234">
              <g fill="#090088">
                <circle cx="52.14" cy="36.19" r="2.96"/><circle cx="55.53" cy="42.1" r="2.66"/><circle cx="58.93" cy="48.02" r="2.4"/><circle cx="62.32" cy="53.93" r="2.13"/><circle cx="65.72" cy="59.84" r="1.86"/><circle cx="69.12" cy="65.76" r="1.6"/><circle cx="72.51" cy="71.67" r="1.33"/><circle cx="75.91" cy="77.59" r="1.06"/><circle cx="79.3" cy="83.5" r=".8"/><circle cx="55.93" cy="31.13" r="2.96"/><circle cx="59.32" cy="37.05" r="2.66"/><circle cx="62.72" cy="42.96" r="2.4"/><circle cx="66.12" cy="48.88" r="2.13"/><circle cx="69.51" cy="54.79" r="1.86"/><circle cx="72.91" cy="60.7" r="1.6"/><circle cx="76.3" cy="66.62" r="1.33"/><circle cx="79.7" cy="72.53" r="1.06"/><circle cx="83.09" cy="78.45" r=".8"/><circle cx="59.72" cy="26.08" r="2.96"/><circle cx="63.12" cy="31.99" r="2.66"/><circle cx="66.51" cy="37.91" r="2.4"/><circle cx="69.91" cy="43.82" r="2.13"/><circle cx="73.3" cy="49.73" r="1.86"/><circle cx="76.7" cy="55.65" r="1.6"/><circle cx="80.09" cy="61.56" r="1.33"/><circle cx="83.49" cy="67.48" r="1.06"/><circle cx="86.88" cy="73.39" r=".8"/><circle cx="63.51" cy="21.02" r="2.96"/><circle cx="66.91" cy="26.94" r="2.66"/><circle cx="70.3" cy="32.85" r="2.4"/><circle cx="73.7" cy="38.77" r="2.13"/><circle cx="77.09" cy="44.68" r="1.86"/><circle cx="80.49" cy="50.59" r="1.6"/><circle cx="83.88" cy="56.51" r="1.33"/><circle cx="87.28" cy="62.42" r="1.06"/><circle cx="90.68" cy="68.34" r=".8"/><circle cx="67.3" cy="15.97" r="2.96"/><circle cx="70.7" cy="21.88" r="2.66"/><circle cx="74.09" cy="27.8" r="2.4"/><circle cx="77.49" cy="33.71" r="2.13"/><circle cx="80.88" cy="39.63" r="1.86"/><circle cx="84.28" cy="45.54" r="1.6"/><circle cx="87.68" cy="51.45" r="1.33"/><circle cx="91.07" cy="57.37" r="1.06"/><circle cx="94.47" cy="63.28" r=".8"/><circle cx="71.09" cy="10.91" r="2.96"/><circle cx="74.49" cy="16.83" r="2.66"/><circle cx="77.89" cy="22.74" r="2.4"/><circle cx="81.28" cy="28.66" r="2.13"/><circle cx="84.68" cy="34.57" r="1.86"/><circle cx="88.07" cy="40.48" r="1.6"/><circle cx="91.47" cy="46.4" r="1.33"/><circle cx="94.86" cy="52.31" r="1.06"/><circle cx="98.26" cy="58.23" r=".8"/><ellipse transform="rotate(-59.124 57.817 59.217)" cx="57.82" cy="59.22" rx="2.96" ry="2.96"/><ellipse transform="rotate(-59.132 50.996 59.094)" cx="51" cy="59.1" rx="2.66" ry="2.66"/><ellipse transform="rotate(-59.116 44.182 58.977)" cx="44.18" cy="58.98" rx="2.4" ry="2.4"/><ellipse transform="rotate(-59.129 37.363 58.857)" cx="37.36" cy="58.85" rx="2.13" ry="2.13"/><ellipse transform="rotate(-59.129 30.543 58.735)" cx="30.54" cy="58.73" rx="1.86" ry="1.86"/><ellipse transform="rotate(-59.129 23.726 58.616)" cx="23.73" cy="58.61" rx="1.6" ry="1.6"/><ellipse transform="rotate(-59.116 16.909 58.494)" cx="16.91" cy="58.49" rx="1.33" ry="1.33"/><ellipse transform="rotate(-59.141 10.088 58.371)" cx="10.09" cy="58.37" rx="1.06" ry="1.06"/><ellipse transform="rotate(-59.129 3.27 58.25)" cx="3.27" cy="58.25" rx=".8" ry=".8"/><ellipse transform="rotate(-59.124 60.21 65.065)" cx="60.21" cy="65.07" rx="2.96" ry="2.96"/><ellipse transform="rotate(-59.116 53.393 64.947)" cx="53.39" cy="64.95" rx="2.66" ry="2.66"/><ellipse transform="rotate(-59.121 46.574 64.828)" cx="46.57" cy="64.82" rx="2.39" ry="2.39"/><ellipse transform="rotate(-59.129 39.756 64.706)" cx="39.75" cy="64.7" rx="2.13" ry="2.13"/><ellipse transform="rotate(-59.121 32.937 64.585)" cx="32.94" cy="64.58" rx="1.86" ry="1.86"/><ellipse transform="rotate(-59.136 26.121 64.463)" cx="26.12" cy="64.46" rx="1.6" ry="1.6"/><ellipse transform="rotate(-59.124 19.3 64.339)" cx="19.3" cy="64.34" rx="1.33" ry="1.33"/><ellipse transform="rotate(-59.095 12.48 64.22)" cx="12.48" cy="64.22" rx="1.06" ry="1.06"/><ellipse transform="rotate(-59.116 5.664 64.1)" cx="5.66" cy="64.1" rx=".8" ry=".8"/><ellipse transform="rotate(-59.124 62.598 70.912)" cx="62.6" cy="70.91" rx="2.96" ry="2.96"/><ellipse transform="rotate(-59.124 55.78 70.791)" cx="55.78" cy="70.79" rx="2.66" ry="2.66"/><ellipse transform="rotate(-59.116 48.967 70.674)" cx="48.97" cy="70.67" rx="2.4" ry="2.4"/><ellipse transform="rotate(-59.111 42.147 70.55)" cx="42.15" cy="70.55" rx="2.13" ry="2.13"/><ellipse transform="rotate(-59.116 35.328 70.43)" cx="35.33" cy="70.43" rx="1.86" ry="1.86"/><ellipse transform="rotate(-59.129 28.508 70.31)" cx="28.51" cy="70.31" rx="1.6" ry="1.6"/><ellipse transform="rotate(-59.129 21.69 70.188)" cx="21.69" cy="70.19" rx="1.33" ry="1.33"/><ellipse transform="rotate(-59.095 14.875 70.07)" cx="14.87" cy="70.07" rx="1.06" ry="1.06"/><ellipse transform="rotate(-59.116 8.054 69.944)" cx="8.06" cy="69.95" rx=".8" ry=".8"/><ellipse transform="rotate(-59.116 64.995 76.764)" cx="65" cy="76.76" rx="2.96" ry="2.96"/><ellipse transform="rotate(-59.124 58.172 76.639)" cx="58.18" cy="76.64" rx="2.66" ry="2.66"/><ellipse transform="rotate(-59.116 51.36 76.523)" cx="51.36" cy="76.52" rx="2.4" ry="2.4"/><ellipse transform="rotate(-59.124 44.537 76.396)" cx="44.54" cy="76.4" rx="2.13" ry="2.13"/><ellipse transform="rotate(-59.129 37.718 76.278)" cx="37.72" cy="76.28" rx="1.86" ry="1.86"/><ellipse transform="rotate(-59.116 30.904 76.159)" cx="30.9" cy="76.16" rx="1.6" ry="1.6"/><ellipse transform="rotate(-59.124 24.086 76.036)" cx="24.08" cy="76.04" rx="1.33" ry="1.33"/><ellipse transform="rotate(-59.141 17.268 75.919)" cx="17.27" cy="75.92" rx="1.06" ry="1.06"/><ellipse transform="rotate(-59.163 10.448 75.797)" cx="10.45" cy="75.79" rx=".8" ry=".8"/><ellipse transform="rotate(-59.129 67.392 82.616)" cx="67.39" cy="82.61" rx="2.96" ry="2.96"/><ellipse transform="rotate(-59.124 60.57 82.49)" cx="60.57" cy="82.49" rx="2.66" ry="2.66"/><ellipse transform="rotate(-59.124 53.75 82.367)" cx="53.75" cy="82.37" rx="2.39" ry="2.39"/><ellipse transform="rotate(-59.124 46.934 82.247)" cx="46.93" cy="82.25" rx="2.13" ry="2.13"/><ellipse transform="rotate(-59.124 40.113 82.124)" cx="40.11" cy="82.13" rx="1.86" ry="1.86"/><ellipse transform="rotate(-59.116 33.295 82.006)" cx="33.3" cy="82.01" rx="1.6" ry="1.6"/><ellipse transform="rotate(-59.124 26.478 81.883)" cx="26.48" cy="81.88" rx="1.33" ry="1.33"/><ellipse transform="rotate(-59.124 19.656 81.758)" cx="19.66" cy="81.76" rx="1.06" ry="1.06"/><ellipse transform="rotate(-59.129 12.838 81.642)" cx="12.84" cy="81.64" rx=".8" ry=".8"/><ellipse transform="rotate(-59.116 69.785 88.463)" cx="69.78" cy="88.46" rx="2.96" ry="2.96"/><ellipse transform="rotate(-59.124 62.959 88.335)" cx="62.96" cy="88.34" rx="2.66" ry="2.66"/><ellipse transform="rotate(-59.124 56.143 88.216)" cx="56.14" cy="88.22" rx="2.4" ry="2.4"/><ellipse transform="rotate(-59.132 49.323 88.091)" cx="49.33" cy="88.1" rx="2.13" ry="2.13"/><ellipse transform="rotate(-59.111 42.507 87.973)" cx="42.51" cy="87.98" rx="1.86" ry="1.86"/><ellipse transform="rotate(-59.124 35.685 87.85)" cx="35.69" cy="87.85" rx="1.6" ry="1.6"/><ellipse transform="rotate(-59.136 28.868 87.73)" cx="28.87" cy="87.73" rx="1.33" ry="1.33"/><ellipse transform="rotate(-59.111 22.052 87.61)" cx="22.05" cy="87.61" rx="1.06" ry="1.06"/><ellipse transform="rotate(-59.129 15.231 87.492)" cx="15.23" cy="87.49" rx=".8" ry=".8"/><ellipse transform="rotate(-28.249 35.14 52.274)" cx="35.14" cy="52.27" rx="2.96" ry="2.96"/><ellipse transform="rotate(-28.237 38.745 46.487)" cx="38.74" cy="46.48" rx="2.66" ry="2.66"/><ellipse transform="rotate(-28.237 42.345 40.694)" cx="42.34" cy="40.69" rx="2.4" ry="2.4"/><ellipse transform="rotate(-28.249 45.942 34.901)" cx="45.95" cy="34.9" rx="2.13" ry="2.13"/><ellipse transform="rotate(-28.237 49.552 29.115)" cx="49.55" cy="29.11" rx="1.86" ry="1.86"/><ellipse transform="rotate(-28.249 53.16 23.325)" cx="53.15" cy="23.32" rx="1.6" ry="1.6"/><ellipse transform="rotate(-28.244 56.764 17.536)" cx="56.76" cy="17.53" rx="1.33" ry="1.33"/><ellipse transform="rotate(-28.249 60.36 11.745)" cx="60.36" cy="11.75" rx="1.06" ry="1.06"/><ellipse transform="rotate(-28.257 63.965 5.955)" cx="63.96" cy="5.95" rx=".8" ry=".8"/><ellipse transform="rotate(-28.244 28.891 51.327)" cx="28.89" cy="51.32" rx="2.96" ry="2.96"/><ellipse transform="rotate(-28.249 32.49 45.53)" cx="32.49" cy="45.53" rx="2.66" ry="2.66"/><ellipse transform="rotate(-28.241 36.094 39.742)" cx="36.1" cy="39.75" rx="2.4" ry="2.4"/><ellipse transform="rotate(-28.24 39.7 33.961)" cx="39.7" cy="33.96" rx="2.13" ry="2.13"/><ellipse transform="rotate(-28.261 43.3 28.164)" cx="43.3" cy="28.17" rx="1.86" ry="1.86"/><ellipse transform="rotate(-28.249 46.907 22.376)" cx="46.91" cy="22.38" rx="1.6" ry="1.6"/><ellipse transform="rotate(-28.249 50.509 16.586)" cx="50.51" cy="16.59" rx="1.33" ry="1.33"/><ellipse transform="rotate(-28.213 54.117 10.8)" cx="54.11" cy="10.8" rx="1.07" ry="1.06"/><ellipse transform="rotate(-28.257 57.72 5.008)" cx="57.72" cy="5.01" rx=".8" ry=".8"/><ellipse transform="rotate(-28.241 22.642 50.374)" cx="22.64" cy="50.38" rx="2.96" ry="2.96"/><ellipse transform="rotate(-28.244 26.247 44.588)" cx="26.25" cy="44.59" rx="2.66" ry="2.66"/><ellipse transform="rotate(-28.244 29.852 38.8)" cx="29.85" cy="38.8" rx="2.4" ry="2.4"/><ellipse transform="rotate(-28.24 33.453 33.013)" cx="33.45" cy="33.01" rx="2.13" ry="2.13"/><ellipse transform="rotate(-28.24 37.055 27.223)" cx="37.06" cy="27.22" rx="1.86" ry="1.86"/><ellipse transform="rotate(-28.257 40.66 21.429)" cx="40.66" cy="21.43" rx="1.6" ry="1.6"/><ellipse transform="rotate(-28.254 44.26 15.638)" cx="44.26" cy="15.64" rx="1.33" ry="1.33"/><ellipse transform="rotate(-28.24 47.868 9.854)" cx="47.87" cy="9.85" rx="1.06" ry="1.06"/><ellipse transform="rotate(-28.228 51.469 4.059)" cx="51.47" cy="4.06" rx=".8" ry=".8"/><ellipse transform="rotate(-28.244 16.398 49.433)" cx="16.4" cy="49.43" rx="2.96" ry="2.96"/><ellipse transform="rotate(-28.244 20 43.64)" cx="20" cy="43.64" rx="2.66" ry="2.66"/><ellipse transform="rotate(-28.244 23.603 37.85)" cx="23.6" cy="37.85" rx="2.4" ry="2.4"/><ellipse transform="rotate(-28.24 27.204 32.064)" cx="27.21" cy="32.06" rx="2.13" ry="2.13"/><ellipse transform="rotate(-28.249 30.806 26.269)" cx="30.81" cy="26.27" rx="1.86" ry="1.86"/><ellipse transform="rotate(-28.249 34.412 20.48)" cx="34.41" cy="20.48" rx="1.6" ry="1.6"/><ellipse transform="rotate(-28.237 38.02 14.692)" cx="38.02" cy="14.69" rx="1.33" ry="1.33"/><ellipse transform="rotate(-28.254 41.615 8.9)" cx="41.62" cy="8.9" rx="1.06" ry="1.06"/><ellipse transform="rotate(-28.254 45.221 3.11)" cx="45.22" cy="3.11" rx=".8" ry=".8"/><ellipse transform="rotate(-28.244 10.149 48.484)" cx="10.15" cy="48.48" rx="2.96" ry="2.96"/><ellipse transform="rotate(-28.254 13.75 42.689)" cx="13.75" cy="42.69" rx="2.66" ry="2.66"/><ellipse transform="rotate(-28.24 17.352 36.906)" cx="17.35" cy="36.9" rx="2.4" ry="2.4"/><ellipse transform="rotate(-28.215 20.96 31.113)" cx="20.96" cy="31.11" rx="2.13" ry="2.13"/><ellipse transform="rotate(-28.241 24.561 25.32)" cx="24.56" cy="25.32" rx="1.86" ry="1.86"/><ellipse transform="rotate(-28.249 28.165 19.532)" cx="28.16" cy="19.53" rx="1.6" ry="1.6"/><ellipse transform="rotate(-28.241 31.766 13.742)" cx="31.77" cy="13.74" rx="1.33" ry="1.33"/><ellipse transform="rotate(-28.261 35.37 7.952)" cx="35.37" cy="7.95" rx="1.06" ry="1.06"/><ellipse transform="rotate(-28.24 38.976 2.168)" cx="38.98" cy="2.16" rx=".8" ry=".8"/><ellipse transform="rotate(-28.241 3.9 47.529)" cx="3.9" cy="47.53" rx="2.96" ry="2.96"/><ellipse transform="rotate(-28.244 7.504 41.744)" cx="7.5" cy="41.74" rx="2.66" ry="2.66"/><ellipse transform="rotate(-28.241 11.107 35.95)" cx="11.11" cy="35.95" rx="2.4" ry="2.4"/><ellipse transform="rotate(-28.244 14.712 30.165)" cx="14.71" cy="30.16" rx="2.13" ry="2.13"/><ellipse transform="rotate(-28.237 18.313 24.374)" cx="18.31" cy="24.37" rx="1.86" ry="1.86"/><ellipse transform="rotate(-28.237 21.915 18.584)" cx="21.92" cy="18.58" rx="1.6" ry="1.6"/><ellipse transform="rotate(-28.225 25.523 12.796)" cx="25.52" cy="12.79" rx="1.33" ry="1.33"/><ellipse transform="rotate(-28.241 29.123 7.004)" cx="29.12" cy="7" rx="1.06" ry="1.06"/><ellipse transform="rotate(-28.225 32.725 1.217)" cx="32.73" cy="1.22" rx=".8" ry=".8"/>
              </g>
            </svg>
          </svg>
        </g>
      </g>
      <g transform="translate(67,17.715700149536133)">
        <g class="tp-name iconsvg-namesvg">
          <g transform="scale(1)">
            <g>
              <path d="M3.68 0L5.02 0 5.02-10.29 13.11-10.29 13.11-11.43 5.02-11.43 5.02-18.77 13.86-18.77 13.86-19.94 3.68-19.94ZM18.77 0L27.5 0 27.5-1.17 20.05-1.17 20.05-9.32 26.52-9.32 26.52-10.4 20.05-10.4 20.05-16.98 27.22-16.98 27.22-18.1 18.77-18.1ZM32.63 0L41.36 0 41.36-1.17 33.91-1.17 33.91-9.32 40.38-9.32 40.38-10.4 33.91-10.4 33.91-16.98 41.08-16.98 41.08-18.1 32.63-18.1ZM52.29-0.95C50.43-0.95 48.95-1.01 47.83-1.14L47.83-17.01C48.74-17.09 50.04-17.12 51.74-17.12 54.12-17.12 56.12-16.36 57.75-14.84 59.37-13.31 60.19-11.26 60.19-8.67 60.19-3.66 57.2-0.95 52.29-0.95ZM51.74-18.27C49.73-18.27 47.98-18.21 46.49-18.1L46.49-0.06C48.48 0.13 50.42 0.22 52.29 0.22 55.01 0.22 57.22-0.52 58.94-2.01 60.66-3.5 61.52-5.72 61.52-8.67 61.52-11.63 60.59-13.97 58.72-15.69 56.85-17.41 54.52-18.27 51.74-18.27ZM67.44 0L68.78 0 68.78-10.29 76.86-10.29 76.86-11.43 68.78-11.43 68.78-18.77 77.62-18.77 77.62-19.94 67.44-19.94ZM90.14-18.38C87.56-18.38 85.39-17.48 83.64-15.67 81.89-13.87 81.02-11.66 81.02-9.05 81.02-6.44 81.89-4.23 83.64-2.43 85.39-0.62 87.56 0.28 90.14 0.28 92.72 0.28 94.89-0.62 96.64-2.43 98.39-4.23 99.26-6.44 99.26-9.05 99.26-11.66 98.39-13.87 96.64-15.67 94.89-17.48 92.72-18.38 90.14-18.38ZM90.15-17.24C94.65-17.24 97.92-13.56 97.92-9.05 97.92-4.54 94.65-0.89 90.15-0.89 85.66-0.89 82.36-4.54 82.36-9.05 82.36-13.56 85.66-17.24 90.15-17.24ZM114.82-13.11C114.82-16.43 112.25-18.21 108.91-18.21 107.79-18.21 106.44-18.15 104.84-18.02L104.84 0 106.12 0 106.12-7.42C107.57-7.33 109.05-7.28 110.55-7.28 112.73-4.27 114.14-2.42 114.78-1.73 115.98-0.44 116.97 0.15 119.26 0.2L119.28-0.67C118.04-0.82 116.89-1.44 115.83-2.54 115.31-3.11 113.94-4.87 111.73-7.81 113.14-8.83 114.82-10.76 114.82-13.11ZM113.46-13.16C113.46-11.88 113.04-10.76 112.2-9.79 111.36-8.82 110.58-8.34 109.86-8.34 108.7-8.34 107.46-8.39 106.12-8.48L106.12-16.98C107.12-17.06 108-17.1 108.74-17.1 111.42-17.1 113.46-15.81 113.46-13.16ZM128.68-17.24C130.75-17.24 132.75-16.94 134.68-16.34L135.01-17.4C133.01-18.05 130.95-18.38 128.85-18.38 126.25-18.38 124.12-17.49 122.48-15.7 120.83-13.92 120.01-11.71 120.01-9.08 120.01-6.45 120.92-4.23 122.74-2.43 124.56-0.62 126.81 0.28 129.46 0.28 132.12 0.28 134.18-0.17 135.63-1.06L135.63-9.09 134.34-9.09 134.34-1.65C133.15-1.14 131.49-0.89 129.34-0.89 127.19-0.89 125.33-1.69 123.75-3.28 122.17-4.87 121.38-6.81 121.38-9.09 121.38-13.44 124.42-17.24 128.68-17.24ZM141.71 0L150.44 0 150.44-1.17 142.99-1.17 142.99-9.32 149.46-9.32 149.46-10.4 142.99-10.4 142.99-16.98 150.16-16.98 150.16-18.1 141.71-18.1ZM153.06 0L154.54 0 154.54-1.48 153.06-1.48ZM159.61-6.28L167.64-6.28 170.27 0 171.69 0 164.05-18.21 163.29-18.21 155.71 0 157.02 0ZM163.6-16.15C163.73-15.78 164.01-15.07 164.44-14.03L167.2-7.36 160.06-7.36 162.85-14.06C163.07-14.61 163.32-15.31 163.6-16.15ZM175.37 0L176.65 0 176.65-18.1 175.37-18.1Z" transform="translate(-3.680000066757202, 19.940000534057617)"/>
            </g>
          </g>
        </g>
      </g>
    </g>
  </g>
</svg>
